<svg class="c-logo__img" aria-labelledby="logo-title" xmlns="http://www.w3.org/2000/svg" width="199.45" height="12.228" viewBox="0 0 199.45 12.228"><path d="M3.8 8.572l-1.056 2.456c.713 0 1.057-.03 1.343-.03.2 0 .428.2.425.52.003.313-.225.486-.425.486-.286 0-.43-.143-1.86-.143-1.372 0-1.54.145-1.8.145-.228 0-.427-.174-.427-.488C0 11.2.2 11 .427 11c.286 0 .515.03 1.286.03L6.345.4c.084-.258.17-.4.454-.4.286 0 .343.115.456.4l4.484 10.627c.918 0 1.004-.03 1.29-.03.202 0 .428.2.428.52 0 .313-.226.486-.428.486-.286 0-.372-.143-2.313-.143h-.03c-1.83 0-2 .143-2.288.143-.2 0-.43-.173-.43-.487 0-.318.23-.518.43-.518.285 0 .372.03 1.202.03L8.572 8.57H3.8zm4.343-1L6.23 2.97l-2 4.602h3.913zm11.975 3.455c1.17 0 1.314-.03 1.597-.03.23 0 .43.2.43.52 0 .313-.2.486-.43.486-.283 0-.398-.143-2.055-.143h-.056c-1.66 0-1.803.143-2.087.143-.2 0-.43-.173-.427-.487-.002-.318.227-.518.427-.518.284 0 .426.032 1.598.03V1.113c-1.172 0-1.313.03-1.598.03-.2 0-.427-.172-.427-.488-.002-.315.227-.514.427-.514.284 0 .426.143 2.087.143h.256c.286 0 .6-.025.8-.025.343 0 .515.14.914.713l5.202 7.46V1.114c-1.2 0-1.316.03-1.602.03-.23 0-.43-.172-.43-.488 0-.315.2-.514.43-.514.286 0 .43.142 2.055.142h.06c1.655 0 1.8-.142 2.085-.142.2 0 .425.2.425.514 0 .316-.225.487-.424.487-.286 0-.43-.03-1.602-.03v10.43c0 .514-.26.658-.485.658-.288 0-.4-.113-.63-.4l-6.544-9.4v8.627zm23.6-6.942c-.312 0-.483-.226-.483-.43 0-2.056-.458-2.573-2.086-2.573h-1.2v9.945c1.37 0 1.54-.03 1.827-.03.23 0 .43.2.43.52 0 .313-.2.486-.43.486-.287 0-.46-.143-2.77-.143h-.117c-2.34 0-2.512.143-2.797.143-.2 0-.43-.173-.43-.487 0-.318.228-.518.43-.518.285 0 .458.03 1.83.03l-.004-9.946h-1.17c-1.658 0-2.115.517-2.115 2.573 0 .204-.172.43-.458.43-.312 0-.456-.226-.456-.43 0-.284.116-1.083.116-2.256V.625c0-.314.197-.512.428-.512.257 0 1.145.143 1.6.143h6.173c.43 0 1.313-.143 1.57-.143.23 0 .428.198.428.512V1.4c0 1.172.143 1.97.143 2.255-.004.204-.147.43-.462.43zm9.374 2.23l.002 4.712c.914 0 1.055-.03 1.34-.03.227 0 .43.2.43.52 0 .313-.203.486-.43.486-.286 0-.6-.143-2.286-.143h-.142c-2.315 0-2.485.143-2.77.143-.23 0-.432-.173-.432-.487 0-.318.202-.518.43-.518.288 0 .457.03 1.83.03V1.113c-1.373 0-1.543.03-1.83.03-.228 0-.43-.172-.43-.488 0-.315.202-.514.43-.514.288 0 .457.143 2.772.143h.142c1.86 0 2-.142 2.286-.142.227 0 .43.2.43.515 0 .316-.203.487-.43.487-.286 0-.572-.03-1.342-.03v4.202h5.056v-4.2c-.884 0-1.054.028-1.34.028-.227 0-.43-.17-.43-.487 0-.315.203-.514.43-.514.286 0 .427.143 2.313.143h.116c2.34 0 2.485-.142 2.773-.142.227 0 .426.2.426.515 0 .316-.2.487-.427.487-.29 0-.433-.03-1.83-.03v9.915c1.397.003 1.54-.03 1.83-.03.227 0 .426.2.426.52 0 .313-.2.486-.427.486-.29 0-.43-.143-2.774-.143h-.114c-1.856 0-2.026.144-2.312.144-.227 0-.43-.173-.43-.487 0-.318.2-.518.43-.518.286 0 .484.027 1.34.027V6.314h-5.056zM77.75 8.86c0 1.2-.085 1.34-.085 1.942 0 .455.173.74.516.74.373 0 .43-.256.43-.597 0-.26.2-.46.428-.46.26 0 .458.2.458.43 0 .885-.826 1.313-1.43 1.313-1.425 0-2.343-.657-2.343-3.37 0-1.888-.313-2.63-2.4-2.63H72.21v4.8c1.37 0 1.542-.03 1.828-.03.228 0 .427.2.427.518 0 .314-.2.487-.427.487-.286 0-.458-.143-2.773-.143h-.142c-2.314 0-2.485.143-2.772.143-.226 0-.426-.173-.424-.487-.002-.318.198-.518.426-.518.288 0 .46.032 1.83.03V1.113c-1.37 0-1.542.03-1.83.03-.227 0-.427-.172-.427-.488 0-.315.2-.514.428-.514.288 0 .46.143 2.63.143.57 0 1.63-.055 2.343-.055 3.058 0 4.43 1.286 4.43 2.77 0 1.316-1.342 2.4-2.714 2.687 1.797.456 2.71 1.828 2.71 3.172zm-4.74-7.78h-.8V5.4l.628.003c1.828-.003 2.802-.576 2.802-2.317 0-1.37-.66-2.004-2.63-2.004zm15.943 11.066c-2.97 0-5.484-2.432-5.484-6.06C83.47 2.456 85.98 0 88.95 0c3 0 5.488 2.455 5.488 6.087 0 3.627-2.486 6.06-5.487 6.06zm0-11.204c-2.085 0-3.2 1.257-3.2 5.145 0 3.885 1.115 5.14 3.2 5.14 2.084.003 3.2-1.254 3.2-5.14S91.038.942 88.953.942zm15.087 10.085c1.373.003 1.54-.03 1.825-.03.234 0 .432.2.432.52 0 .313-.197.486-.43.486-.286 0-.454-.143-2.77-.143h-.14c-2.318 0-2.487.143-2.773.143-.23 0-.43-.173-.43-.487 0-.318.2-.518.43-.518.286 0 .455.03 1.826.03V1.113c-1.37 0-1.54.03-1.826.03-.23 0-.43-.172-.43-.487 0-.316.2-.515.43-.515.314 0 .428.143 2.486.143.97 0 1.43-.025 2.457-.025 3.14 0 4.828 1.455 4.828 3.483 0 2.03-1.688 3.518-4.828 3.518h-1.088v3.767zm0-4.57h1.087c2.058 0 2.8-.744 2.8-2.715 0-1.914-.742-2.66-2.8-2.66h-1.088v5.374zm15.715 5.69c-2.972 0-5.483-2.433-5.483-6.06 0-3.633 2.512-6.088 5.486-6.088 2.998 0 5.485 2.453 5.485 6.085 0 3.628-2.487 6.06-5.488 6.06zM119.758.94c-2.085 0-3.2 1.257-3.2 5.145 0 3.885 1.115 5.14 3.2 5.14 2.082 0 3.198-1.254 3.198-5.14S121.84.942 119.758.942zm18.002 10.144c1.627 0 2.087-.543 2.085-2.573.002-.23.173-.427.485-.427.287 0 .43.198.43.427 0 .286-.115 1.058-.115 2.227v.8c0 .29-.202.487-.428.487-.257 0-1.143-.11-1.602-.11l-4.86-.058c-2.314 0-2.483.14-2.768.14-.23 0-.43-.172-.43-.486 0-.318.2-.518.43-.518.284 0 .453.03 1.826.032V1.113c-1.373 0-1.542.03-1.826.03-.23 0-.43-.172-.43-.487 0-.316.2-.515.43-.515.284 0 .453.143 2.77.143h.145c2.314 0 2.483-.142 2.776-.142.226 0 .425.2.425.515 0 .316-.2.487-.43.487-.288 0-.457-.03-1.827-.03v9.974h2.914zm12.63 1.06c-2.974 0-5.487-2.432-5.487-6.06 0-3.632 2.517-6.087 5.488-6.087 3 0 5.484 2.453 5.484 6.085 0 3.628-2.484 6.06-5.482 6.06zm0-11.204c-2.09 0-3.202 1.257-3.202 5.145 0 3.885 1.113 5.14 3.203 5.14 2.084 0 3.2-1.254 3.2-5.14 0-3.888-1.113-5.145-3.198-5.145zm10.857 5.145c0-3.632 2.513-6.087 5.485-6.087 1.63 0 2.4.543 3.088 1.114.146-.11.257-.23.257-.458 0-.256.027-.54.457-.54.4 0 .458.197.458.51v3.547c0 .228-.03.54-.458.54-.43 0-.457-.312-.457-.54 0-1.773-1.373-3.23-3.172-3.23-2.173 0-3.373 1.37-3.373 5.144 0 3.744 1.2 5.143 3.373 5.14 1.228 0 2.458-.48 2.458-3.225-.945 0-1.087.027-1.37.027-.2 0-.43-.2-.43-.488 0-.314.228-.515.43-.515.285 0 .396.143 2.31.143h.115c1.972 0 2.03-.142 2.316-.142.228 0 .427.198.427.515 0 .287-.197.486-.425.486-.287 0-.43-.03-1.344-.03 0 .858-.282 4.146-4.657 4.146-2.97 0-5.485-2.433-5.485-6.06zM183.537 11c.226 0 .425.2.425.517 0 .314-.2.487-.425.487-.286 0-.462-.143-2.776-.143h-.14c-2.312 0-2.485.145-2.77.145-.227 0-.424-.173-.424-.487 0-.318.197-.518.425-.518.285 0 .458.028 1.83.028V1.114c-1.37 0-1.545.03-1.83.03-.227 0-.424-.172-.424-.487 0-.316.197-.515.425-.515.287 0 .458.142 2.77.142h.14c2.316.003 2.49-.142 2.778-.142.226 0 .427.2.425.514 0 .316-.2.487-.425.487-.286 0-.462-.03-1.832-.03v9.918c1.37-.002 1.546-.03 1.832-.03zm11.17-5.6c.686 0 1.26-.54 1.26-1.372 0-.258.053-.485.37-.485.313 0 .313.227.313.485 0 .287-.057.657-.057 1.658v.285c0 1 .057 1.37.057 1.66 0 .256 0 .484-.312.484-.318 0-.372-.23-.372-.485 0-.83-.573-1.373-1.258-1.373h-.97v4.83h2.684c1.66 0 2.085-.543 2.085-2.573 0-.23.173-.424.486-.427.313 0 .457.198.457.427 0 .286-.113 1.058-.113 2.227v.8c0 .29-.228.488-.428.488-.26 0-1.148-.11-1.603-.11l-4.658-.058c-2.314 0-2.487.142-2.776.142-.228 0-.425-.173-.425-.487 0-.318.2-.518.424-.518.29 0 .462.03 1.833.03V1.113c-1.37 0-1.544.03-1.833.03-.228 0-.425-.172-.425-.488 0-.315.196-.514.424-.514.29 0 .462.143 2.775.143l4.144-.025c.457 0 1.342-.144 1.6-.144.228 0 .43.198.43.512V1.4c0 1.173.114 1.972.114 2.256a.42.42 0 0 1-.433.43c-.314 0-.48-.226-.48-.43 0-2.056-.46-2.573-2.09-2.573h-2.2V5.4h.97z"></path></svg>