<?xml version="1.0" encoding="utf-8"?>
<!-- Generator: Adobe Illustrator 15.0.0, SVG Export Plug-In . SVG Version: 6.00 Build 0)  -->
<!DOCTYPE svg PUBLIC "-//W3C//DTD SVG 1.1//EN" "http://www.w3.org/Graphics/SVG/1.1/DTD/svg11.dtd">
<svg version="1.1" id="Layer_1" xmlns="http://www.w3.org/2000/svg" xmlns:xlink="http://www.w3.org/1999/xlink" x="0px" y="0px"
	 width="175.748px" height="55.482px" viewBox="217.504 368.637 175.748 55.482"
	 enable-background="new 217.504 368.637 175.748 55.482" xml:space="preserve">
<g>
	<polygon display="none" fill="#FFFFFF" points="209,300 401.756,300 401.756,492.756 209,492.756 	"/>
	<path d="M393.252,405.043c0-1.082-0.893-1.955-1.975-1.955s-1.975,0.873-1.975,1.955c0,1.1,0.893,1.973,1.975,1.973
		S393.252,406.143,393.252,405.043L393.252,405.043z"/>
	<path fill="#FFFFFF" d="M393.023,405.043c0,0.967-0.777,1.746-1.746,1.746s-1.745-0.779-1.745-1.729
		c0-0.967,0.776-1.745,1.745-1.745S393.023,404.094,393.023,405.043L393.023,405.043z"/>
	<path d="M390.537,406.068h0.285v-0.933h0.722c0.437,0,0.322,0.398,0.36,0.666l0.037,0.267h0.343
		c-0.114-0.191-0.076-0.229-0.095-0.515c-0.039-0.379-0.059-0.418-0.267-0.551c0.208-0.17,0.284-0.266,0.284-0.549
		c-0.038-0.494-0.359-0.551-0.702-0.551h-0.969L390.537,406.068L390.537,406.068z"/>
	<path d="M346.406,402.859h21.562c31.965,0,31.965,21.051,0,21.051h-21.562V402.859L346.406,402.859z"/>
	<path d="M295.251,424.119c9.149,0,16.647-4.896,16.647-10.877c0-5.998-7.499-10.875-16.647-10.875
		c-9.187,0-16.666,4.877-16.666,10.875C278.586,419.223,286.064,424.119,295.251,424.119L295.251,424.119z"/>
	<path d="M228.608,423.91h-11.104v-21.051h10.193c0,0,8.409-0.228,8.409,5.354c0,0,0.341,3.834-2.98,4.953
		c0,0,4.138,1.102,4.138,5.012S233.41,423.91,228.608,423.91L228.608,423.91z"/>
	<path d="M391.126,387.542l1.196,0.684c0,0-1.534,2.174-3.938,4.511c2.519,3.352,4.563,6.081,4.563,6.081h-2.068l-3.688-4.976
		c-0.411,0.361-0.84,0.719-1.285,1.065c-3.76,2.903-6.662,4.537-9.377,4.537c-2.733,0-7.688-2.24-7.688-7.309
		c0-5.067,3.397-7.46,6.701-9.662c0.801-0.539,1.521-1.002,2.172-1.415c0,0-3.046-3.481-3.046-6.557
		c0-3.094,2.695-5.562,5.693-5.562c3.02,0,5.221,2.791,5.221,5.657c0,2.705-2.618,4.859-5.604,6.979
		c1.457,1.917,4.578,6.062,7.392,9.81C388.555,390.28,389.807,389.004,391.126,387.542L391.126,387.542z"/>
	<polygon points="301.515,398.816 313.645,368.637 325.83,398.816 323.951,398.816 320.021,389.099 307.323,389.099 
		303.433,398.816 	"/>
	<path d="M253.645,369.624h6.625c18.678,0,19.095,29.193-0.437,29.193h-6.188V369.624L253.645,369.624z"/>
	<path d="M293.505,398.816h-7.346v-29.193h6.644c0,0,7.137,0,7.441,7.099c0,0,0.417,4.65-3.227,6.625c0,0,5.79,1.178,5.79,7.309
		C302.806,396.842,297.89,398.816,293.505,398.816L293.505,398.816z"/>
	<path d="M225.097,398.816h-7.346v-29.193h6.662c0,0,7.137,0,7.422,7.099c0,0,0.437,4.65-3.227,6.625c0,0,5.827,1.178,5.827,7.309
		C234.436,396.842,229.481,398.816,225.097,398.816L225.097,398.816z"/>
	<path fill="#FFFFFF" d="M391.525,404.15c0.17,0,0.436,0.036,0.397,0.418c-0.038,0.284-0.209,0.321-0.397,0.321h-0.703v-0.739
		H391.525L391.525,404.15z"/>
	<path fill="#FFFFFF" d="M363.355,417.531h2.26c12.262,0,12.262-8.123,0-8.123h-2.26V417.531L363.355,417.531z"/>
	<path d="M312.259,402.859h11.332l10.041,11.18c0.552,0.59,1.12,0.438,0.74-0.455c-0.38-0.91-0.664-2.809-0.664-2.809v-7.916h11.123
		v21.051H333.67l-10.137-10.744c-0.551-0.607-1.119-0.455-0.74,0.457c0.361,0.891,0.551,2.809,0.551,2.809v7.479h-11.085V402.859
		L312.259,402.859z"/>
	<path fill="#FFFFFF" d="M295.251,409.086c3.132,0,5.676,1.859,5.676,4.156c0,2.276-2.543,4.158-5.676,4.158
		c-3.132,0-5.694-1.882-5.694-4.158C289.557,410.945,292.12,409.086,295.251,409.086L295.251,409.086z"/>
	<polygon points="238.592,402.859 266.362,402.859 269.646,408.82 272.778,402.859 284.337,402.859 274.543,414.951 274.543,423.91
		264.616,423.91 264.616,414.646 255.429,403.676 255.429,408.572 247.703,408.572 247.703,410.643 254.802,410.643
		254.802,416.051 247.703,416.051 247.703,418.197 255.808,418.197 255.808,423.91 238.592,423.91 	"/>
	<path fill="#FFFFFF" d="M225.191,411.098h1.993c2.126,0,2.126-3.188,0-3.188h-1.993V411.098L225.191,411.098z"/>
	<path fill="#FFFFFF" d="M225.191,415.482h2.278c2.98,0,2.98,3.473,0,3.473h-2.278V415.482L225.191,415.482z"/>
	<path fill="#FFFFFF" d="M386.172,392.467l-7.432-10.023c-2.686,1.865-3.469,2.347-4.792,3.353c-1.404,1.102-3.38,2.733-3.38,5.847
		s2.469,5.923,5.695,5.923C378.636,397.564,381.932,396.159,386.172,392.467L386.172,392.467z"/>
	<path fill="#FFFFFF" d="M378.984,380.255c1.354-0.86,2.35-1.536,3.162-2.394c1.367-1.442,1.596-2.354,1.596-3.266
		c0-0.892-0.588-3.796-3.588-3.796c-3.019,0-3.701,2.676-3.701,4.024C376.453,376.042,377.219,377.819,378.984,380.255
		L378.984,380.255z"/>
	<polygon points="340.427,381.923 358.23,381.923 358.23,369.624 359.921,369.624 359.921,398.816 358.23,398.816 358.23,383.746
		340.427,383.746 340.427,398.816 338.736,398.816 338.736,369.624 340.427,369.624 	"/>
	<polygon points="320.079,369.624 336.896,369.624 336.896,371.275 329.323,371.275 329.323,398.816 327.634,398.816
		327.634,371.275 320.079,371.275 	"/>
	<polygon fill="#FFFFFF" points="319.339,387.409 313.645,373.268 307.988,387.409 	"/>
	<path fill="#FFFFFF" d="M255.6,371.446h4.404c16.722,0,16.476,25.492,0,25.492H255.6V371.446L255.6,371.446z"/>
	<polygon points="236.694,369.624 250.607,369.624 250.607,371.446 238.479,371.446 238.479,382.056 250.266,382.056
		250.266,383.746 238.479,383.746 238.479,397.014 250.607,397.014 250.607,398.816 236.694,398.816 	"/>
	<path fill="#FFFFFF" d="M287.792,371.408h4.897c7.707,0,7.726,11.483,0,11.483h-4.897V371.408L287.792,371.408z"/>
	<path fill="#FFFFFF" d="M219.383,371.408h4.897c7.707,0,7.726,11.483,0,11.483h-4.897V371.408L219.383,371.408z"/>
	<path fill="#FFFFFF" d="M287.83,384.771h6.51c9.149,0,8.902,12.223-0.247,12.223h-6.264L287.83,384.771L287.83,384.771z"/>
	<path fill="#FFFFFF" d="M219.44,384.771h6.492c9.168,0,8.921,12.223-0.247,12.223h-6.245V384.771L219.44,384.771z"/>
</g>
</svg>
