<svg version="1.1" xmlns="http://www.w3.org/2000/svg" xmlns:xlink="http://www.w3.org/1999/xlink" x="0px" y="0px" viewBox="0 0 150.964 42.48" enable-background="new 0 0 150.964 42.48" preserveAspectRatio="xMidYMid meet" xml:space="preserve">
<g>
	<path fill="#000000" d="M11.563,6.275c0-3.407-2.489-5.606-6.345-5.606H2.914H2.823v11.327h2.353
		C9.116,11.996,11.563,9.804,11.563,6.275 M4.393,10.543v-8.42h0.396c2.375,0,5.202,0.73,5.202,4.211
		c0,3.479-2.827,4.209-5.202,4.209H4.393z"/>
	<polygon fill="#000000" points="21.82,10.543 17.222,10.543 17.222,6.512 21.685,6.512 21.685,5.06 
		17.222,5.06 17.222,2.123 21.82,2.123 21.82,0.669 21.729,0.669 15.65,0.669 15.65,11.996 21.82,11.996 	"/>
	<path fill="#000000" d="M28.117,3.826c0.303,0.314,8.369,8.767,8.369,8.767V0.669h-1.57v8.097
		C34.612,8.451,26.549,0,26.549,0v0.228v11.768h1.568V3.826z"/>
	<path fill="#000000" d="M48.264,0.669c0,0-3.088,7.698-3.25,8.096c-0.16-0.398-3.266-8.096-3.266-8.096
		H40.03l4.984,12.066l4.969-12.066h-0.137H48.264z"/>
	<polygon fill="#000000" points="59.826,10.543 55.228,10.543 55.228,6.512 59.695,6.512 59.695,5.06 
		55.228,5.06 55.228,2.123 59.826,2.123 59.826,0.669 59.736,0.669 53.66,0.669 53.66,11.996 59.826,11.996 	"/>
	<path fill="#000000" d="M71.966,11.996c0,0-3.408-4.696-3.548-4.892
		c1.544-0.253,2.619-1.522,2.619-3.167c0-1.143-0.577-2.193-1.507-2.738c-0.937-0.53-2.075-0.53-2.989-0.53h-1.685h-0.091v11.327
		h1.57V7.279h0.441c0.052,0.078,3.28,4.717,3.28,4.717H71.966z M66.689,5.946h-0.354V2.091h0.279c2.007,0,2.941,0.606,2.941,1.905
		C69.555,5.722,68.023,5.946,66.689,5.946"/>
	<path fill="#000000" d="M83.556,11.176c0.697-0.592,1.067-1.414,1.067-2.376
		c0-1.378-0.891-2.483-2.212-2.834c0.79-0.505,1.192-1.238,1.192-2.25c0-1.021-0.324-1.819-0.963-2.375
		c-0.699-0.621-1.552-0.672-2.365-0.672h-2.232h-0.092v11.327h2.943C81.912,11.997,82.753,11.857,83.556,11.176 M78.843,1.517h1.136
		c0.649,0,1.32,0,1.858,0.34c0.556,0.35,0.875,0.989,0.875,1.757c0,0.814-0.229,1.31-0.791,1.715
		c-0.56,0.403-1.085,0.399-1.753,0.394h-1.325V1.517z M78.843,11.151V6.57h1.478c0.816,0,1.673,0.028,2.308,0.348
		C83.3,7.246,83.73,8,83.73,8.832c0,0.769-0.373,1.446-1.053,1.907c-0.617,0.415-1.367,0.415-2.093,0.413H78.843z"/>
	<path fill="#000000" d="M98.705,6.334c0-3.151-2.688-5.812-5.871-5.812c-3.182,0-5.87,2.661-5.87,5.812
		c0,3.147,2.688,5.811,5.87,5.811C96.018,12.145,98.705,9.481,98.705,6.334 M87.855,6.334c0-2.692,2.279-4.965,4.979-4.965
		s4.98,2.273,4.98,4.965c0,2.689-2.281,4.963-4.98,4.963S87.855,9.023,87.855,6.334"/>
	<polygon fill="#000000" points="100.072,0.669 100.072,1.517 102.955,1.517 102.955,11.996 
		103.845,11.996 103.845,1.517 106.729,1.517 106.729,0.669 106.639,0.669 	"/>
	<path fill="#000000" d="M116.445,11.998h0.92l-4.793-11.849l-0.084,0.208l-4.724,11.641h0.921
		c0,0,1.448-3.557,1.494-3.666h4.77C114.994,8.44,116.445,11.998,116.445,11.998 M110.519,7.483
		c0.095-0.231,1.899-4.672,2.054-5.046c0.151,0.374,1.945,4.815,2.037,5.046H110.519z"/>
	<path fill="#000000" d="M120.988,2.559c0.303,0.321,9.358,9.947,9.358,9.947V0.668h-0.892v9.591
		c-0.305-0.321-9.358-9.876-9.358-9.876v0.228v11.385h0.892V2.559z"/>
	<polygon fill="#000000" points="134.611,0.668 134.611,11.996 135.504,11.996 135.504,0.668 
		135.415,0.668 	"/>
	<path fill="#000000" d="M145.02,12.146c1.357,0,2.658-0.488,3.77-1.412l0.033-0.026V9.435L148.66,9.63
		c-0.779,0.952-2.359,1.666-3.668,1.666c-1.209,0-2.521-0.565-3.516-1.511c-0.943-0.928-1.466-2.129-1.466-3.376
		c0-2.734,2.282-5.041,4.981-5.041c1.353,0,2.824,0.693,3.668,1.726l0.162,0.197V2.022l-0.029-0.029
		c-1.011-0.935-2.381-1.471-3.758-1.471c-3.26,0-5.916,2.613-5.916,5.825C139.119,9.492,141.824,12.146,145.02,12.146"/>
	<path fill="#000000" d="M14.085,32.053h6.255c-0.125,3.948-4.168,7.188-7.922,7.188
		c-5.232,0-9.402-4.814-9.402-9.88c0-5.425,4.234-9.822,9.658-9.822c2.952,0,5.873,1.574,7.605,3.947l2.118-2.021
		c-2.375-2.983-6.096-4.684-9.85-4.684C5.583,16.781,0,22.492,0,29.456C0,36.161,5.455,42,12.225,42s11.453-5.104,11.453-11.744
		v-0.962h-9.593V32.053z"/>
	<path fill="#000000" d="M24.193,41.486h3.24l2.76-6.064h11.102l2.757,6.064h3.243l-11.55-25.219
		L24.193,41.486z M31.445,32.661l4.3-9.785l4.298,9.785H31.445z"/>
	<path fill="#000000" d="M64.162,24.19c0-2.308-1.16-4.585-3.18-5.774
		c-1.923-1.092-4.232-1.124-6.384-1.124H50.94v24.194h3.017V31.253h1.252l7.121,10.233h3.659l-7.636-10.523
		C61.85,30.546,64.162,27.659,64.162,24.19 M54.918,28.713h-0.961v-8.76h0.803c2.984,0,6.576,0.545,6.576,4.333
		C61.336,28.136,58,28.713,54.918,28.713"/>
	<polygon fill="#000000" points="92.535,41.487 105.531,41.487 105.531,38.728 95.552,38.728 
		95.552,29.584 105.24,29.584 105.24,26.823 95.552,26.823 95.552,20.053 105.531,20.053 105.531,17.293 92.535,17.293 	"/>
	<polygon fill="#000000" points="129.146,35.167 110.984,16.139 110.984,41.487 114,41.487 114,23.453 
		132.162,42.481 132.162,17.293 129.146,17.293 	"/>
	<path fill="#000000" d="M144.966,27.176l-1.733-0.675c-1.507-0.577-3.371-1.572-3.371-3.465
		c0-2.116,2.119-3.431,4.044-3.431c1.829,0,2.984,0.768,3.882,2.277l2.407-1.442c-1.317-2.344-3.529-3.659-6.226-3.659
		c-3.657,0-7.123,2.34-7.123,6.255c0,3.37,2.504,4.942,5.263,6.13l1.667,0.705c2.085,0.866,4.172,1.99,4.172,4.589
		c0,2.535-1.861,4.718-4.461,4.718c-2.595,0-4.716-1.928-4.684-4.588l-3.049,0.641c0.514,3.883,3.562,6.769,7.479,6.769
		c4.332,0,7.731-3.144,7.731-7.539C150.964,30.418,148.398,28.525,144.966,27.176"/>
	<path fill="#000000" d="M85.245,29.406c-0.235,0.132-0.379,0.189-0.591,0.294
		c-1.599,0.702-2.727,0.508-3.666,0.318c-0.2,0.041-0.439,0.099-0.684,0.179c-0.467,0.149-0.917,0.378-1.184,0.711
		c-0.958,1.187-1.799,2.024-2.927,2.914c0.472-0.061,0.706-0.018,1.048,0.043c2.114-1.904,4.255-1.854,6.688-1.489
		c0.764,0.114,1.726,0.415,1.726,0.415c-0.214,0.101-1.103,0.48-1.36,0.598c-4.638,2.088-6.023,1.618-7.34,0.887
		c-0.547-0.048-1.138-0.057-1.531,0.198c-1.771,1.297-3.51,2.209-5.287,2.971c0.297,0.016,0.572,0.087,0.804,0.162
		c3.356-1.614,5.649-0.451,8.895,0.524c-1.739,0.572-2.898,1.064-4.468,1.368c-1.247,0.239-2.263,0.313-3.426-0.304
		c-0.666-0.349-0.886-0.754-1.25-1.151c-0.248-0.096-0.829-0.221-1.13-0.2v3.644h4.909c7.637,0,13.668-3.979,13.668-12.226
		c0-0.67-0.048-1.308-0.13-1.924C86.948,28.327,86.056,28.963,85.245,29.406"/>
	<path fill="#000000" d="M69.562,23.433c0.986-0.818,2.113-1.469,3.093-2.072
		c-0.941,3.174-2.033,4.709-3.093,5.555v0.554c0.576-0.248,1.094-0.482,1.554-0.713c0.735-1.368,1.807-3.01,7.989-3.753
		c-0.953,0.969-2.012,2.118-3.262,2.975c1.805,4.487,0.953,5.924,0.072,7.046c-0.055,0.238-0.103,0.383-0.191,0.593
		c1.729-1.453,3.003-2.728,4.236-4.789c-1.996-3.004,0.031-5.793,1.273-8.106c1.799,5.706,0.367,7.204-0.754,8.272
		c-0.24,0.389-0.319,0.522-0.582,0.886c0.148-0.071,0.308-0.13,0.461-0.18c0.223-0.071,0.396-0.105,0.593-0.148
		c1.402-2.741,4.271-2.889,6.912-3.087c-1.267-6.165-6.801-9.172-13.296-9.172h-5.006V23.433z"/>
	<path fill="#000000" d="M71.092,35.908c-0.051,0.31-0.096,0.458-0.267,0.718
		c1.304-0.6,2.486-1.27,3.765-2.159c0.515-0.378,0.713-0.766,0.803-1.238c-1.875-2.153-1.404-4.462-0.67-6.598
		c-1.028,0.49-2.186,0.805-3.51,0.616c-0.488,0.239-1.033,0.488-1.65,0.745v9.218l0.13-0.057c0.278-0.16,0.854-0.589,0.955-1.267
		c-1.205-2.481-0.111-4.557,1.198-6.395l0.404-0.544c0.297-0.397,0.6-0.778,0.877-1.145C73.891,33.553,72.377,34.991,71.092,35.908"
		/>
</g>
</svg>