<?xml version="1.0" encoding="utf-8"?>
<!-- Generator: Adobe Illustrator 15.0.0, SVG Export Plug-In . SVG Version: 6.00 Build 0)  -->
<!DOCTYPE svg PUBLIC "-//W3C//DTD SVG 1.1//EN" "http://www.w3.org/Graphics/SVG/1.1/DTD/svg11.dtd">
<svg version="1.1" id="Layer_1" xmlns="http://www.w3.org/2000/svg" xmlns:xlink="http://www.w3.org/1999/xlink" x="0px" y="0px"
	 width="800px" height="384.938px" viewBox="0 77.7 800 384.938" enable-background="new 0 77.7 800 384.938" xml:space="preserve">
<g>
	<polygon points="141.75,301.513 194.375,242.263 143.625,242.263 143.625,217.575 234.562,217.575 234.562,238.825 
		181.938,298.075 234.562,298.075 234.562,322.763 141.75,322.763 	"/>
	<path d="M355.125,270.513v-0.25c0-15.125-11-28.375-27.062-28.375c-15.938,0-26.5,12.875-26.5,28.125v0.25
		c0,15.125,11,28.375,26.938,28.375C344.5,298.45,355.125,285.638,355.125,270.513 M271.688,270.513v-0.25
		c0-30.125,24.25-54.625,56.75-54.625s56.5,24.125,56.5,54.375v0.25c0,30.125-24.25,54.625-56.75,54.625
		C295.688,324.7,271.688,300.575,271.688,270.513"/>
	<polygon points="426.562,217.575 455.75,217.575 455.75,297.138 506.688,297.138 506.688,322.763 426.562,322.763 	"/>
	<path d="M610.938,281.263L599.25,251.45l-11.812,29.812H610.938z M585.438,216.95h28.125l44.688,105.812h-31.188l-7.688-18.688
		h-40.562l-7.562,18.688h-30.625L585.438,216.95z"/>
	<path d="M28.625,434.013H771.5V106.325H28.625V434.013z M800,462.638H0V77.7h800V462.638z"/>
</g>
</svg>
